<svg width="32" height="33" viewBox="0 0 32 33" fill="none" xmlns="http://www.w3.org/2000/svg">
<path d="M11 8.5C11 8.23478 11.1054 7.98043 11.2929 7.79289C11.4804 7.60536 11.7348 7.5 12 7.5H27C27.2652 7.5 27.5196 7.60536 27.7071 7.79289C27.8946 7.98043 28 8.23478 28 8.5C28 8.76522 27.8946 9.01957 27.7071 9.20711C27.5196 9.39464 27.2652 9.5 27 9.5H12C11.7348 9.5 11.4804 9.39464 11.2929 9.20711C11.1054 9.01957 11 8.76522 11 8.5ZM27 15.5H12C11.7348 15.5 11.4804 15.6054 11.2929 15.7929C11.1054 15.9804 11 16.2348 11 16.5C11 16.7652 11.1054 17.0196 11.2929 17.2071C11.4804 17.3946 11.7348 17.5 12 17.5H27C27.2652 17.5 27.5196 17.3946 27.7071 17.2071C27.8946 17.0196 28 16.7652 28 16.5C28 16.2348 27.8946 15.9804 27.7071 15.7929C27.5196 15.6054 27.2652 15.5 27 15.5ZM27 23.5H12C11.7348 23.5 11.4804 23.6054 11.2929 23.7929C11.1054 23.9804 11 24.2348 11 24.5C11 24.7652 11.1054 25.0196 11.2929 25.2071C11.4804 25.3946 11.7348 25.5 12 25.5H27C27.2652 25.5 27.5196 25.3946 27.7071 25.2071C27.8946 25.0196 28 24.7652 28 24.5C28 24.2348 27.8946 23.9804 27.7071 23.7929C27.5196 23.6054 27.2652 23.5 27 23.5ZM7 7.5H5C4.73478 7.5 4.48043 7.60536 4.29289 7.79289C4.10536 7.98043 4 8.23478 4 8.5C4 8.76522 4.10536 9.01957 4.29289 9.20711C4.48043 9.39464 4.73478 9.5 5 9.5H7C7.26522 9.5 7.51957 9.39464 7.70711 9.20711C7.89464 9.01957 8 8.76522 8 8.5C8 8.23478 7.89464 7.98043 7.70711 7.79289C7.51957 7.60536 7.26522 7.5 7 7.5ZM7 15.5H5C4.73478 15.5 4.48043 15.6054 4.29289 15.7929C4.10536 15.9804 4 16.2348 4 16.5C4 16.7652 4.10536 17.0196 4.29289 17.2071C4.48043 17.3946 4.73478 17.5 5 17.5H7C7.26522 17.5 7.51957 17.3946 7.70711 17.2071C7.89464 17.0196 8 16.7652 8 16.5C8 16.2348 7.89464 15.9804 7.70711 15.7929C7.51957 15.6054 7.26522 15.5 7 15.5ZM7 23.5H5C4.73478 23.5 4.48043 23.6054 4.29289 23.7929C4.10536 23.9804 4 24.2348 4 24.5C4 24.7652 4.10536 25.0196 4.29289 25.2071C4.48043 25.3946 4.73478 25.5 5 25.5H7C7.26522 25.5 7.51957 25.3946 7.70711 25.2071C7.89464 25.0196 8 24.7652 8 24.5C8 24.2348 7.89464 23.9804 7.70711 23.7929C7.51957 23.6054 7.26522 23.5 7 23.5Z" fill="white"/>
</svg>
