<svg width="17" height="16" viewBox="0 0 17 16" fill="none" xmlns="http://www.w3.org/2000/svg">
<rect x="0.5" width="16" height="16" rx="8" fill="black"/>
<path d="M6.57997 5.44012C6.57997 5.35525 6.61368 5.27385 6.67369 5.21384C6.7337 5.15383 6.8151 5.12012 6.89997 5.12012H11.7C11.7848 5.12012 11.8662 5.15383 11.9262 5.21384C11.9863 5.27385 12.02 5.35525 12.02 5.44012C12.02 5.52499 11.9863 5.60638 11.9262 5.66639C11.8662 5.7264 11.7848 5.76012 11.7 5.76012H6.89997C6.8151 5.76012 6.7337 5.7264 6.67369 5.66639C6.61368 5.60638 6.57997 5.52499 6.57997 5.44012ZM11.7 7.68012H6.89997C6.8151 7.68012 6.7337 7.71383 6.67369 7.77384C6.61368 7.83385 6.57997 7.91525 6.57997 8.00012C6.57997 8.08499 6.61368 8.16638 6.67369 8.22639C6.7337 8.2864 6.8151 8.32012 6.89997 8.32012H11.7C11.7848 8.32012 11.8662 8.2864 11.9262 8.22639C11.9863 8.16638 12.02 8.08499 12.02 8.00012C12.02 7.91525 11.9863 7.83385 11.9262 7.77384C11.8662 7.71383 11.7848 7.68012 11.7 7.68012ZM11.7 10.2401H6.89997C6.8151 10.2401 6.7337 10.2738 6.67369 10.3338C6.61368 10.3939 6.57997 10.4752 6.57997 10.5601C6.57997 10.645 6.61368 10.7264 6.67369 10.7864C6.7337 10.8464 6.8151 10.8801 6.89997 10.8801H11.7C11.7848 10.8801 11.8662 10.8464 11.9262 10.7864C11.9863 10.7264 12.02 10.645 12.02 10.5601C12.02 10.4752 11.9863 10.3939 11.9262 10.3338C11.8662 10.2738 11.7848 10.2401 11.7 10.2401ZM5.29997 5.12012H4.65997C4.5751 5.12012 4.4937 5.15383 4.43369 5.21384C4.37368 5.27385 4.33997 5.35525 4.33997 5.44012C4.33997 5.52499 4.37368 5.60638 4.43369 5.66639C4.4937 5.7264 4.5751 5.76012 4.65997 5.76012H5.29997C5.38484 5.76012 5.46623 5.7264 5.52624 5.66639C5.58625 5.60638 5.61997 5.52499 5.61997 5.44012C5.61997 5.35525 5.58625 5.27385 5.52624 5.21384C5.46623 5.15383 5.38484 5.12012 5.29997 5.12012ZM5.29997 7.68012H4.65997C4.5751 7.68012 4.4937 7.71383 4.43369 7.77384C4.37368 7.83385 4.33997 7.91525 4.33997 8.00012C4.33997 8.08499 4.37368 8.16638 4.43369 8.22639C4.4937 8.2864 4.5751 8.32012 4.65997 8.32012H5.29997C5.38484 8.32012 5.46623 8.2864 5.52624 8.22639C5.58625 8.16638 5.61997 8.08499 5.61997 8.00012C5.61997 7.91525 5.58625 7.83385 5.52624 7.77384C5.46623 7.71383 5.38484 7.68012 5.29997 7.68012ZM5.29997 10.2401H4.65997C4.5751 10.2401 4.4937 10.2738 4.43369 10.3338C4.37368 10.3939 4.33997 10.4752 4.33997 10.5601C4.33997 10.645 4.37368 10.7264 4.43369 10.7864C4.4937 10.8464 4.5751 10.8801 4.65997 10.8801H5.29997C5.38484 10.8801 5.46623 10.8464 5.52624 10.7864C5.58625 10.7264 5.61997 10.645 5.61997 10.5601C5.61997 10.4752 5.58625 10.3939 5.52624 10.3338C5.46623 10.2738 5.38484 10.2401 5.29997 10.2401Z" fill="white"/>
</svg>
