<svg width="34" height="34" viewBox="0 0 34 34" fill="none" xmlns="http://www.w3.org/2000/svg">
<path d="M3 7.11937C4.28807 7.14122 5.45607 7.18493 6.37301 6.24523C7.27903 5.32739 7.23536 4.18008 7.21353 3H27.8664C27.5826 5.99392 28.9798 7.38161 31.9817 7.11937C32.0362 9.0534 31.9817 10.9219 31.6433 12.7685C30.1151 21.2913 25.5413 27.6397 17.9875 31.8574C17.6819 32.0323 17.4417 32.0541 17.1142 31.8793C9.2548 27.4758 4.62647 20.8215 3.30564 11.8943C3.07641 10.3427 3.09824 8.74745 3 7.11937ZM17.54 5.99392C12.8789 5.99392 9.11289 9.77456 9.11289 14.4293C9.11289 19.0841 12.9116 22.8757 17.5509 22.8757C22.1901 22.8757 25.9779 19.0732 25.9779 14.4184C25.9779 9.75271 22.201 5.98299 17.54 5.98299V5.99392Z" fill="white"/>
<path d="M17.2699 19.98C14.1999 19.93 11.7499 17.42 11.7999 14.36C11.8399 11.32 14.3799 8.89998 17.4799 8.94998C20.4699 8.99998 22.8999 11.56 22.8399 14.58C22.7799 17.56 20.2499 20.02 17.2699 19.97V19.98ZM17.3999 16.51C18.6399 15.19 19.9599 13.79 21.2699 12.4C20.8299 11.99 20.3099 11.5 19.6999 10.92C18.9399 11.74 18.1399 12.61 17.2899 13.53C16.7699 13.01 16.3199 12.56 15.8399 12.08C15.3699 12.59 14.8799 13.1 14.3099 13.71C15.2899 14.6 16.2999 15.51 17.3999 16.51Z" fill="white"/>
</svg>
