<svg width="16" height="16" viewBox="0 0 16 16" fill="none" xmlns="http://www.w3.org/2000/svg">
<rect width="16" height="16" rx="8" fill="#FFABFC"/>
<g style="mix-blend-mode:multiply">
<path d="M3.61146 10.0768C3.51907 10.0768 3.43172 10.0231 3.39308 9.93255C3.13271 9.31709 3 8.66306 3 7.9889C3 7.85809 3.10583 7.75244 3.23686 7.75244C3.36788 7.75244 3.47371 7.85809 3.47371 7.9889C3.47371 8.59933 3.59298 9.19131 3.82983 9.74808C3.88023 9.86883 3.82479 10.0063 3.70385 10.0567C3.67361 10.0701 3.64337 10.0751 3.61146 10.0751V10.0768Z" fill="black"/>
<path d="M12.2475 10.6316C12.2139 10.6316 12.1803 10.6249 12.1467 10.6098C12.0291 10.5545 11.9788 10.4136 12.0342 10.2962C12.2358 9.86692 12.3685 9.41078 12.4273 8.94289C12.4441 8.81376 12.5616 8.72153 12.691 8.7383C12.8203 8.75507 12.9127 8.87246 12.8959 9.00159C12.8304 9.51978 12.6843 10.0229 12.4609 10.4975C12.4205 10.583 12.3349 10.6333 12.2475 10.6333V10.6316Z" fill="black"/>
<path d="M12.7665 8.22514C12.6355 8.22514 12.5297 8.11949 12.5297 7.98868C12.5297 6.16745 11.4445 4.53237 9.76299 3.82132C9.64372 3.77101 9.58661 3.63181 9.637 3.51275C9.6874 3.39368 9.82682 3.33666 9.94609 3.38697C11.8023 4.17013 13 5.97627 13 7.98701C13 8.11781 12.8942 8.22346 12.7632 8.22346L12.7665 8.22514Z" fill="black"/>
<path d="M3.499 6.66085C3.47381 6.66085 3.44693 6.65582 3.42173 6.64743C3.2991 6.60383 3.23359 6.46967 3.27559 6.34725C3.97607 4.34322 5.87428 2.99658 8.00093 2.99658C8.13196 2.99658 8.23779 3.10223 8.23779 3.23304C8.23779 3.36385 8.13196 3.4695 8.00093 3.4695C6.07417 3.4695 4.35403 4.68868 3.72242 6.50488C3.68882 6.60215 3.59643 6.66252 3.499 6.66252V6.66085Z" fill="black"/>
<path d="M4.2179 8.68966C4.10031 8.68966 3.99784 8.60245 3.9844 8.48171C3.96424 8.31904 3.95416 8.15301 3.95416 7.98867C3.95416 6.55482 4.7252 5.21489 5.96827 4.49378C6.08082 4.42838 6.22529 4.46695 6.2908 4.57931C6.35631 4.69167 6.31768 4.83589 6.20513 4.90129C5.10652 5.53856 4.42451 6.72253 4.42451 7.98867C4.42451 8.13457 4.43291 8.28047 4.45139 8.42469C4.46651 8.55382 4.37412 8.67121 4.24477 8.6863C4.23469 8.6863 4.22629 8.68798 4.21622 8.68798L4.2179 8.68966Z" fill="black"/>
<path d="M10.3443 5.22375C10.2939 5.22375 10.2418 5.20698 10.1998 5.17344C9.56652 4.68039 8.80724 4.42046 8.0026 4.42046C7.82958 4.42046 7.65488 4.4322 7.48522 4.45735C7.35587 4.4758 7.2366 4.38692 7.21812 4.25779C7.19965 4.12866 7.28868 4.00959 7.41802 3.99114C7.60952 3.96263 7.80774 3.94922 8.0026 3.94922C8.91307 3.94922 9.77314 4.24437 10.4904 4.80282C10.5929 4.88331 10.6114 5.03089 10.5307 5.13319C10.4837 5.19356 10.4148 5.22375 10.3443 5.22375Z" fill="black"/>
<path d="M10.5087 12.2717C10.4566 12.2717 10.4029 12.255 10.3592 12.2181C10.2584 12.1359 10.2433 11.9867 10.3256 11.886C11.5519 10.3918 12.1415 7.80084 11.0042 6.04837C10.9337 5.93936 10.9639 5.79346 11.0731 5.72303C11.1823 5.65259 11.3285 5.68278 11.399 5.79179C11.9802 6.68563 12.2036 7.85954 12.0273 9.09382C11.866 10.2191 11.3788 11.3444 10.6901 12.1829C10.6431 12.2399 10.5759 12.2684 10.507 12.2684L10.5087 12.2717Z" fill="black"/>
<path d="M8.24621 9.65961C8.12022 9.65961 8.01607 9.56066 8.01103 9.43321C7.99423 8.97874 7.92872 8.53937 7.81785 8.12514C7.78426 7.99937 7.85817 7.87024 7.98416 7.8367C8.11014 7.80316 8.23949 7.87695 8.27309 8.00272C8.39235 8.45048 8.46291 8.92508 8.48138 9.41476C8.48642 9.54557 8.38395 9.65458 8.25461 9.65961C8.25125 9.65961 8.24789 9.65961 8.24621 9.65961Z" fill="black"/>
<path d="M7.69674 12.9827C7.66819 12.9827 7.63795 12.9777 7.60939 12.966C7.48845 12.9173 7.42965 12.7798 7.47837 12.6591C7.79249 11.8776 7.98735 11.0391 8.04447 10.2358C8.05287 10.1067 8.16542 10.0077 8.29644 10.0178C8.42579 10.0262 8.5249 10.1402 8.51482 10.2693C8.45435 11.1213 8.24773 12.0084 7.9168 12.8352C7.87985 12.9274 7.79081 12.9827 7.69674 12.9827Z" fill="black"/>
<path d="M4.27325 11.1884C4.25141 11.1884 4.22957 11.185 4.20774 11.18C4.08175 11.1448 4.00952 11.014 4.04647 10.8882C4.17582 10.4354 4.21278 9.93735 4.1523 9.44934C4.1355 9.32021 4.22789 9.20282 4.35724 9.18605C4.48659 9.16928 4.60417 9.26152 4.62097 9.39065C4.68985 9.94238 4.64785 10.5059 4.50003 11.0173C4.46979 11.1213 4.37572 11.1884 4.27325 11.1884Z" fill="black"/>
<path d="M10.8885 8.22562C10.7575 8.22562 10.6517 8.11997 10.6517 7.98917C10.6517 7.11544 10.2199 6.29874 9.49763 5.80402C9.39012 5.73024 9.36324 5.58434 9.43715 5.47701C9.51106 5.36968 9.65721 5.34285 9.76472 5.41663C10.6164 5.99856 11.1237 6.96116 11.1237 7.99084C11.1237 8.12165 11.0179 8.2273 10.8868 8.2273L10.8885 8.22562Z" fill="black"/>
<path d="M5.11326 8.22532C4.98223 8.22532 4.8764 8.11967 4.8764 7.98887C4.8764 6.26993 6.27738 4.86963 8.00088 4.86963C8.10839 4.86963 8.2159 4.87466 8.32173 4.8864C8.45107 4.89982 8.54514 5.01553 8.53338 5.14466C8.51994 5.27379 8.40404 5.3677 8.27469 5.35596C8.18398 5.34758 8.09327 5.34255 8.00256 5.34255C6.54111 5.34255 5.35011 6.52987 5.35011 7.99054C5.35011 8.12135 5.24429 8.227 5.11326 8.227V8.22532Z" fill="black"/>
<path d="M5.0393 11.9518C5.01242 11.9518 4.98386 11.9468 4.95698 11.9368C4.83436 11.8915 4.77388 11.7556 4.81924 11.6332C5.01074 11.1234 5.10817 10.5851 5.10817 10.035C5.10817 9.67447 5.06617 9.31727 4.98218 8.97013C4.95195 8.84267 5.0309 8.7169 5.15688 8.68671C5.28287 8.65653 5.41054 8.73367 5.44077 8.86112C5.53316 9.24348 5.57852 9.63925 5.57852 10.035C5.57852 10.6421 5.47101 11.2358 5.25935 11.7992C5.22408 11.8932 5.13337 11.9518 5.03762 11.9518H5.0393Z" fill="black"/>
<path d="M8.62902 12.9996C8.55343 12.9996 8.47952 12.9644 8.43416 12.8973C8.36025 12.79 8.38713 12.6441 8.49463 12.5703C9.68563 11.7519 10.45 10.5009 10.6465 9.04525C10.6633 8.91612 10.7826 8.82556 10.9119 8.84233C11.0412 8.8591 11.132 8.97817 11.1135 9.1073C10.8985 10.6954 10.0636 12.0639 8.76173 12.9577C8.72141 12.9862 8.67438 12.9996 8.62734 12.9996H8.62902Z" fill="black"/>
<path d="M6.30245 7.34174C6.26549 7.34174 6.22854 7.33336 6.19326 7.31491C6.07735 7.25454 6.03368 7.11199 6.09247 6.99628C6.46539 6.28355 7.19612 5.84082 8.00075 5.84082C8.5383 5.84082 9.05232 6.03871 9.44876 6.40094C9.54451 6.48815 9.55291 6.6374 9.46388 6.73467C9.37653 6.83026 9.22702 6.83864 9.12959 6.74976C8.82051 6.46802 8.41903 6.31374 7.99907 6.31374C7.37082 6.31374 6.80136 6.6592 6.50907 7.21597C6.46707 7.29646 6.38476 7.34342 6.29909 7.34342L6.30245 7.34174Z" fill="black"/>
<path d="M6.38809 10.5028C6.25875 10.5028 6.15292 10.3972 6.15124 10.268C6.15124 9.59388 6.05885 8.92475 5.87911 8.27743C5.84383 8.15165 5.91774 8.02252 6.04373 7.98731C6.16972 7.95209 6.29906 8.02588 6.33434 8.15165C6.52416 8.83923 6.62159 9.55196 6.62327 10.268C6.62327 10.3988 6.51744 10.5045 6.38809 10.5045V10.5028Z" fill="black"/>
<path d="M5.93961 12.5103C5.90769 12.5103 5.87409 12.5036 5.84218 12.4885C5.72291 12.4348 5.67084 12.2956 5.72459 12.1766C5.87913 11.8361 5.98832 11.4772 6.0488 11.11C6.07063 10.9809 6.19158 10.8936 6.31925 10.9154C6.44859 10.9356 6.53595 11.058 6.51411 11.1854C6.44691 11.5946 6.32597 11.9921 6.15463 12.3711C6.11431 12.4583 6.02864 12.5086 5.93961 12.5086V12.5103Z" fill="black"/>
<path d="M10.1174 9.44627C10.1174 9.44627 10.1073 9.44627 10.1023 9.44627C9.97291 9.43789 9.8738 9.32553 9.8822 9.1964C9.91748 8.64131 9.84189 8.09628 9.66046 7.57641C9.61679 7.45399 9.6823 7.31983 9.80493 7.27622C9.92756 7.23262 10.0619 7.29803 10.1056 7.42045C10.3089 8.00069 10.3929 8.60777 10.3542 9.22659C10.3458 9.35069 10.2434 9.44795 10.1191 9.44795L10.1174 9.44627Z" fill="black"/>
<path d="M6.77122 12.8219C6.73931 12.8219 6.70571 12.8152 6.67547 12.8018C6.55621 12.7481 6.50245 12.6089 6.55621 12.4899C6.66708 12.2417 6.76115 11.9834 6.83674 11.7218C6.87369 11.596 7.00472 11.5256 7.12903 11.5608C7.25501 11.5977 7.32725 11.7268 7.29029 11.8526C7.20798 12.1343 7.10719 12.4127 6.98624 12.6811C6.94761 12.7683 6.86026 12.8202 6.77122 12.8202V12.8219Z" fill="black"/>
<path d="M7.2179 11.2871C7.20614 11.2871 7.19438 11.2871 7.18262 11.2837C7.05328 11.2636 6.96425 11.1445 6.9844 11.0154C7.03984 10.6465 7.05664 10.2691 7.03312 9.89348C7.02136 9.71404 7.0012 9.5346 6.97265 9.35851C6.95081 9.22938 7.03816 9.10864 7.16751 9.08684C7.29517 9.06504 7.4178 9.15224 7.43964 9.28137C7.47155 9.47255 7.49339 9.66876 7.50683 9.86329C7.53203 10.2725 7.51523 10.6833 7.45476 11.0858C7.43628 11.2032 7.33549 11.2871 7.22126 11.2871H7.2179Z" fill="black"/>
<path d="M9.29092 9.74639C9.1599 9.74639 9.05407 9.64074 9.05407 9.50993C9.05407 8.72006 8.83401 7.22417 8.00082 7.22417C7.57918 7.22417 7.2365 7.56628 7.2365 7.98721C7.2365 8.0023 7.2365 8.01572 7.2365 8.02913C7.24322 8.15826 7.14411 8.27062 7.01476 8.27733C6.88373 8.28404 6.77286 8.1851 6.76615 8.05597C6.76615 8.03249 6.76447 8.01069 6.76447 7.98721C6.76447 7.30634 7.31881 6.75293 8.00082 6.75293C9.1263 6.75293 9.5261 8.23708 9.5261 9.50993C9.5261 9.64074 9.42027 9.74639 9.28924 9.74639H9.29092Z" fill="black"/>
<path d="M8.84074 11.8695C8.80883 11.8695 8.77523 11.8628 8.74499 11.8493C8.62573 11.7957 8.57197 11.6565 8.62573 11.5374C8.80379 11.1366 8.92977 10.714 8.99697 10.2797C9.01713 10.1505 9.13807 10.0633 9.26574 10.0835C9.39509 10.1036 9.48244 10.2243 9.46228 10.3518C9.38837 10.8264 9.2523 11.2909 9.05576 11.7286C9.01712 11.8158 8.92977 11.8678 8.84074 11.8678V11.8695Z" fill="black"/>
</g>
</svg>
